<svg id="Capa_1" enable-background="new 0 0 512 512" height="512" viewBox="0 0 512 512" width="512" xmlns="http://www.w3.org/2000/svg"><g id="XMLID_1740_"><path id="XMLID_1757_" d="m38 474c9.505-33.616 27.465-64.235 52.167-88.936l367.448-367.449c10.154-10.154 26.616-10.154 36.77 0 10.154 10.154 10.154 26.616 0 36.77l-367.449 367.448c-24.701 24.702-55.32 42.662-88.936 52.167z" fill="#ffcd69"/><circle id="XMLID_1756_" cx="38" cy="474" fill="#ffcd69" r="28"/><g id="XMLID_1749_" fill="#ffda8f"><path id="XMLID_1753_" d="m474 474c-9.505-33.616-27.465-64.235-52.167-88.936l-367.448-367.449c-10.154-10.154-26.616-10.154-36.77 0-10.154 10.154-10.154 26.616 0 36.77l367.448 367.448c24.702 24.702 55.321 42.662 88.937 52.167z"/><circle id="XMLID_1751_" cx="474" cy="474" r="28"/></g><g id="XMLID_714_"><path id="XMLID_745_" d="m474 436c-1.258 0-2.501.065-3.728.185-10.449-21.607-24.332-41.157-41.367-58.193l-121.993-121.992 65.392-65.392c3.905-3.905 3.905-10.237 0-14.143-3.906-3.904-10.236-3.904-14.143 0l-65.392 65.392-22.627-22.627 194.544-194.543c3.022-3.023 7.041-4.687 11.314-4.687s8.292 1.664 11.314 4.687c6.238 6.238 6.238 16.389 0 22.627l-65.514 65.513c-3.905 3.905-3.905 10.237 0 14.143 3.906 3.904 10.236 3.904 14.143 0l65.514-65.514c6.798-6.8 10.543-15.84 10.543-25.456s-3.745-18.656-10.544-25.456c-6.8-6.799-15.84-10.544-25.456-10.544s-18.656 3.745-25.456 10.544l-194.544 194.544-194.544-194.544c-14.036-14.035-36.875-14.035-50.911 0-6.8 6.8-10.545 15.84-10.545 25.456s3.745 18.656 10.544 25.456l194.544 194.544-121.992 121.992c-17.036 17.036-30.918 36.586-41.367 58.193-1.228-.12-2.471-.185-3.729-.185-20.953 0-38 17.047-38 38s17.047 38 38 38 38-17.047 38-38c0-1.258-.065-2.501-.185-3.729 21.605-10.448 41.156-24.331 58.193-41.367l121.992-121.992 121.992 121.992c17.037 17.037 36.587 30.919 58.193 41.368-.12 1.227-.185 2.47-.185 3.728 0 20.953 17.047 38 38 38s38-17.047 38-38-17.047-38-38-38zm-436 56c-9.925 0-18-8.075-18-18s8.075-18 18-18 18 8.075 18 18-8.075 18-18 18zm81.866-77.238c-15.048 15.048-32.252 27.391-51.24 36.777-2.292-3.117-5.047-5.872-8.164-8.165 9.387-18.989 21.73-36.193 36.777-51.239l121.991-121.992 22.627 22.627zm272.269 0-367.449-367.449c-3.022-3.021-4.686-7.04-4.686-11.313s1.664-8.292 4.686-11.313c6.238-6.237 16.389-6.239 22.627 0l367.448 367.448c15.047 15.046 27.39 32.25 36.777 51.239-3.118 2.292-5.873 5.047-8.165 8.165-18.988-9.386-36.191-21.73-51.238-36.777zm81.865 77.238c-9.925 0-18-8.075-18-18s8.075-18 18-18 18 8.075 18 18-8.075 18-18 18z"/><path id="XMLID_804_" d="m389.979 144.649c-1.859 1.86-2.93 4.431-2.93 7.07 0 2.63 1.07 5.21 2.93 7.07 1.86 1.859 4.44 2.93 7.07 2.93s5.21-1.07 7.07-2.93c1.859-1.86 2.93-4.44 2.93-7.07 0-2.64-1.07-5.21-2.93-7.07-1.86-1.859-4.431-2.93-7.07-2.93-2.629.001-5.209 1.071-7.07 2.93z"/></g></g></svg>